<?xml version="1.0" encoding="UTF-8"?>
<svg id="Layer_1" xmlns="http://www.w3.org/2000/svg" width="128" height="128" viewBox="0 0 128 128">
  <defs>
    <style>
      .cls-1 {
        fill: #c5b4e3;
      }

      .cls-2 {
        fill: #4b2e83;
      }
    </style>
  </defs>
  <circle class="cls-1" cx="64" cy="64" r="64"/>
  <g>
    <g>
      <path class="cls-2" d="M48.38,101.1c.03.69.46,1.13,1.07,1.13.44,0,.71-.19,1.04-.7l.49.27c-.37.66-.87.95-1.55.95-.97,0-1.64-.73-1.64-1.78s.68-1.75,1.63-1.75,1.59.7,1.59,1.75v.11h-2.62ZM50.4,100.61c-.11-.53-.49-.87-.99-.87s-.91.36-.99.87h1.97Z"/>
      <path class="cls-2" d="M54.22,98.32c-.27-.44-.51-.58-.93-.58-.5,0-.89.36-.89.83,0,.23.11.43.34.58.13.08.27.16.42.23l.17.08.17.07.17.07c.87.38,1.22.81,1.22,1.48,0,.93-.74,1.67-1.7,1.67-.87,0-1.46-.5-1.67-1.39l.58-.16c.15.65.52.99,1.08.99.62,0,1.1-.46,1.1-1.06,0-.33-.15-.58-.44-.77-.14-.09-.29-.17-.47-.24l-.16-.08-.16-.07-.16-.07c-.78-.35-1.09-.73-1.09-1.33,0-.78.66-1.38,1.51-1.38.61,0,1.07.28,1.39.84l-.48.31Z"/>
      <path class="cls-2" d="M58.36,100.3c-.37-.4-.65-.55-1.06-.55-.67,0-1.18.53-1.18,1.24s.51,1.24,1.16,1.24c.45,0,.72-.15,1.11-.58v.76c-.41.26-.69.35-1.08.35-1,0-1.78-.77-1.78-1.75s.78-1.77,1.8-1.77c.39,0,.69.09,1.04.32v.76Z"/>
      <path class="cls-2" d="M59.86,98.03c0,.23-.19.41-.41.41s-.41-.19-.41-.41.19-.41.41-.41.41.19.41.41ZM59.73,102.66h-.57v-3.36h.57v3.36Z"/>
      <path class="cls-2" d="M61.06,101.1c.03.69.46,1.13,1.07,1.13.44,0,.71-.19,1.04-.7l.49.27c-.37.66-.87.95-1.55.95-.97,0-1.64-.73-1.64-1.78s.68-1.75,1.63-1.75,1.59.7,1.59,1.75v.11h-2.62ZM63.07,100.61c-.11-.53-.49-.87-.99-.87s-.91.36-.99.87h1.97Z"/>
      <path class="cls-2" d="M64.99,99.3v.4c.29-.36.55-.49.97-.49s.78.18.96.46c.13.21.19.46.19.9v2.08h-.57v-1.98c0-.69-.19-.94-.71-.94-.58,0-.83.37-.83,1.25v1.67h-.57v-3.36h.57Z"/>
      <path class="cls-2" d="M70.65,100.3c-.37-.4-.65-.55-1.06-.55-.67,0-1.18.53-1.18,1.24s.51,1.24,1.16,1.24c.45,0,.72-.15,1.11-.58v.76c-.41.26-.69.35-1.08.35-1,0-1.78-.77-1.78-1.75s.78-1.77,1.8-1.77c.39,0,.69.09,1.04.32v.76Z"/>
      <path class="cls-2" d="M71.82,101.1c.03.69.46,1.13,1.07,1.13.44,0,.71-.19,1.04-.7l.49.27c-.37.66-.87.95-1.55.95-.97,0-1.64-.73-1.64-1.78s.68-1.75,1.63-1.75,1.59.7,1.59,1.75v.11h-2.62ZM73.83,100.61c-.1-.53-.49-.87-.99-.87s-.91.36-.99.87h1.97Z"/>
      <path class="cls-2" d="M77.98,102.66h-.61v-5.39h.61v5.39Z"/>
      <path class="cls-2" d="M79.65,99.3v.4c.29-.36.55-.49.97-.49s.78.18.96.46c.13.21.19.46.19.9v2.08h-.57v-1.98c0-.69-.19-.94-.71-.94-.58,0-.83.37-.83,1.25v1.67h-.57v-3.36h.57Z"/>
      <path class="cls-2" d="M84.04,100.09c-.12-.23-.27-.33-.46-.33-.23,0-.41.16-.41.36s.11.31.54.49c.81.34,1.01.55,1.01,1.06,0,.61-.5,1.09-1.14,1.09-.57,0-.96-.28-1.18-.86l.51-.21c.19.41.36.54.68.54s.54-.23.54-.53c0-.26-.12-.38-.54-.56-.78-.34-.97-.53-.97-.98,0-.54.42-.94,1-.94.39,0,.7.2.9.61l-.48.25Z"/>
      <path class="cls-2" d="M85.97,102.66h-.57v-2.82h-.35v-.53h.35v-1.21h.57v1.21h.6v.53h-.6v2.82Z"/>
      <path class="cls-2" d="M87.73,98.03c0,.23-.19.41-.41.41s-.41-.19-.41-.41.19-.41.41-.41.41.19.41.41ZM87.6,102.66h-.57v-3.36h.57v3.36Z"/>
      <path class="cls-2" d="M89.15,102.66h-.57v-2.82h-.35v-.53h.35v-1.21h.57v1.21h.6v.53h-.6v2.82Z"/>
      <path class="cls-2" d="M90.79,101.26c0,.68.23.97.76.97s.75-.29.75-.97v-1.96h.57v2.02c0,.49-.08.76-.31,1.01-.24.27-.61.42-1.02.42s-.78-.15-1.03-.42c-.23-.25-.31-.52-.31-1.01v-2.02h.57v1.96Z"/>
      <path class="cls-2" d="M94.41,102.66h-.57v-2.82h-.35v-.53h.35v-1.21h.57v1.21h.6v.53h-.6v2.82Z"/>
      <path class="cls-2" d="M95.82,101.1c.03.69.46,1.13,1.07,1.13.44,0,.71-.19,1.04-.7l.49.27c-.37.66-.87.95-1.55.95-.97,0-1.64-.73-1.64-1.78s.68-1.75,1.63-1.75,1.59.7,1.59,1.75v.11h-2.62ZM97.83,100.61c-.11-.53-.49-.87-.99-.87s-.91.36-.99.87h1.97Z"/>
    </g>
    <path class="cls-2" d="M40.88,101.26c-.03-.06-.05-.13-.09-.19l4.32-3.1c.2.22.49.35.81.35.61,0,1.1-.49,1.1-1.1s-.49-1.1-1.1-1.1-1.1.49-1.1,1.1c0,.19.05.37.13.52h0s-4.32,3.1-4.32,3.1c-.06-.07-.13-.13-.2-.19l1.32-2.17s0,0,0,0c.16.08.35.12.54.12.02,0,.04,0,.06,0,.71-.03,1.26-.63,1.22-1.34-.02-.39-.21-.73-.49-.96,0,0,0,0,0,0l1.45-2.39c.09.04.18.05.28.05h.03c.41-.02.73-.37.71-.78-.02-.4-.35-.71-.75-.71h-.03c-.41.02-.73.37-.71.78,0,.2.1.38.24.51l-1.46,2.39h0c-.18-.09-.39-.13-.61-.12-.71.03-1.26.63-1.22,1.34.02.4.21.74.51.97,0,0,0,0,0,0l-1.32,2.17c-.08-.04-.17-.07-.26-.09l.62-4.3s-.03,0-.05,0c-.04,0-.08,0-.12-.01.04,0,.08.01.12.01.41,0,.75-.34.75-.75s-.34-.75-.75-.75-.75.34-.75.75c0,.33.22.61.52.71l-.62,4.29s-.04,0-.06,0c-.1,0-.2.01-.29.03l-.23-.72h0c.24-.13.4-.37.4-.66,0-.41-.34-.75-.75-.75s-.75.34-.75.75.34.75.75.75c.03,0,.06,0,.09,0l.23.73c-.26.11-.47.3-.61.54l-3.64-1.79c.04-.11.06-.24.06-.36,0-.61-.49-1.1-1.1-1.1s-1.1.49-1.1,1.1.49,1.1,1.1,1.1c.38,0,.72-.19.91-.49h0s3.64,1.79,3.64,1.79c-.04.11-.07.22-.08.34h-1.44s.02.09.02.14c0-.41-.34-.75-.75-.75s-.75.34-.75.75.34.75.75.75c.37,0,.68-.27.74-.62h1.43c.03.3.15.56.33.77l-1.18,1.26h0c-.09-.07-.2-.13-.31-.17-.11-.04-.23-.06-.35-.06-.47,0-.89.3-1.04.75-.09.28-.07.58.06.84.13.26.36.46.64.55.11.04.23.06.35.06.47,0,.89-.3,1.04-.75.09-.28.07-.58-.06-.84-.06-.12-.14-.22-.23-.3.04.03.07.07.11.11l1.18-1.26c.2.15.43.25.69.28v2.05c-.27.05-.49.24-.58.5-.06.19-.05.39.04.57.09.18.24.31.43.37.08.03.16.04.24.04.32,0,.61-.21.71-.51.13-.39-.08-.82-.48-.95-.03,0-.06-.02-.09-.02v-2.05c.09,0,.18-.03.27-.05l1.37,3.22c-.23.13-.4.34-.49.6-.09.28-.07.58.06.84.13.26.36.46.64.55.11.04.23.06.35.06.47,0,.89-.3,1.04-.75.19-.58-.12-1.2-.7-1.39-.11-.04-.23-.06-.35-.06-.1,0-.2.02-.3.04l-1.37-3.21c.12-.07.23-.15.33-.25l.63.5s0,0,0,0c-.04.06-.07.13-.09.2-.19.58.12,1.2.7,1.39.11.04.23.06.35.06.47,0,.89-.3,1.04-.75.19-.58-.12-1.2-.7-1.39-.11-.04-.23-.06-.35-.06-.31,0-.59.13-.79.34,0,0,0,0,0,0l-.63-.49c.07-.12.13-.24.17-.38l3.98.64s0,0,0,0c0,.31.2.59.51.69.08.03.16.04.24.04.32,0,.61-.21.71-.51.13-.39-.08-.82-.48-.95-.08-.03-.16-.04-.24-.04-.32,0-.6.2-.7.5l-3.98-.64s0-.06,0-.09c0-.08,0-.16-.02-.23l2.18-.61s0,0,0,0c.16.4.56.69,1.02.69.61,0,1.1-.49,1.1-1.1s-.49-1.1-1.1-1.1-1.1.49-1.1,1.1c0,.05,0,.1.01.14,0,0,0,0,0,0l-2.18.61ZM45.92,96.5c.4,0,.73.33.73.73s-.33.73-.73.73-.73-.33-.73-.73.33-.73.73-.73ZM45.04,97.88s0,0,0-.01c0,0,0,0,0,.01ZM44.82,92.85c.2,0,.37.16.38.36,0,.21-.15.39-.36.4h-.02c-.2,0-.37-.16-.38-.36,0-.21.15-.39.38-.4ZM41.38,97.37c-.02-.5.37-.93.87-.96.01,0,.03,0,.04,0,.49,0,.89.38.91.88.02.5-.37.93-.87.96-.51.02-.93-.37-.96-.87ZM41.64,98.43s0,0,0,0c0,0,0,0,0,0ZM40.12,95.39c0-.21.17-.38.38-.38s.38.17.38.38-.17.38-.38.38-.38-.17-.38-.38ZM38.35,99.04c0-.21.17-.38.38-.38s.38.17.38.38-.17.38-.38.38-.38-.17-.38-.38ZM38.95,99.75s0,0,0,0c0,0,0,0,0,0ZM33.76,99.62c-.4,0-.73-.33-.73-.73s.33-.73.73-.73.73.33.73.73-.33.73-.73.73ZM34.74,99.37s0,0,0,.01c0,0,0,0,0-.01ZM36.07,102.15c-.21,0-.38-.17-.38-.38s.17-.38.38-.38.38.17.38.38-.17.38-.38.38ZM37.42,105.03c-.1.3-.38.5-.7.5-.08,0-.16-.01-.23-.04-.38-.13-.59-.54-.47-.93.1-.3.38-.5.7-.5.08,0,.16.01.23.04.19.06.34.19.42.37.09.17.1.37.04.56ZM42.16,106.54c.38.13.59.54.47.93-.1.3-.38.5-.7.5-.08,0-.16-.01-.23-.04-.19-.06-.34-.19-.42-.37-.09-.18-.1-.37-.04-.56.1-.3.38-.5.7-.5.08,0,.16.01.23.04ZM41.49,106.23s0,0,.01,0c0,0,0,0-.01,0ZM41.48,103.53c.1-.3.38-.5.7-.5.08,0,.16.01.23.04.38.13.59.54.47.93-.1.3-.38.5-.7.5-.08,0-.16-.01-.23-.04-.38-.13-.59-.54-.47-.93ZM45.29,102.62c.05-.16.2-.26.36-.26.04,0,.08,0,.12.02.2.07.31.28.24.48-.06.2-.28.31-.48.24-.2-.07-.31-.28-.24-.48ZM44.92,102.63s.01-.09.03-.13c-.01.04-.02.09-.03.13ZM39.95,106.03c-.06.2-.28.31-.48.24-.1-.03-.18-.1-.22-.19-.05-.09-.05-.19-.02-.29.05-.16.2-.26.36-.26.04,0,.08,0,.12.02.2.07.31.28.24.48ZM44.16,99.78c.4,0,.73.33.73.73s-.33.73-.73.73-.73-.33-.73-.73.33-.73.73-.73ZM43.1,100.8s0,0,0-.01c0,0,0,0,0,.01Z"/>
  </g>
  <g>
    <g>
      <path class="cls-2" d="M55.33,50.9c.43-1.32-.3-2.74-1.62-3.17l-4.49-1.46-3.67-4.53c-1.31-1.61-3.25-2.54-5.33-2.54h-4.9c-5.77,0-10.15,9.88-11.35,12.91-.51,1.29.12,2.75,1.41,3.27.31.12.62.18.93.18,1,0,1.95-.6,2.34-1.59,1.03-2.59,2.44-5.14,3.74-6.99l-.35,9.83-3.97,18.46c-.33,1.51.64,3,2.15,3.32.2.04.39.06.59.06,1.29,0,2.45-.9,2.73-2.21l3.92-18.24h1.1v17.65c0,1.54,1.25,2.8,2.8,2.8s2.8-1.25,2.8-2.8v-18.8s-.34-9.46-.34-9.46l1.96,2.42c.31.38.72.66,1.18.81l5.2,1.69c1.33.44,2.74-.3,3.17-1.62Z"/>
      <circle class="cls-2" cx="38.1" cy="32.09" r="5.6" transform="translate(-6.13 55.01) rotate(-67.5)"/>
      <path class="cls-2" d="M58.86,52.05c-.62,1.91-2.09,3.35-3.9,3.97v3.09c0,.86.7,1.56,1.57,1.56h38.77c.86,0,1.56-.7,1.56-1.56V23.36c0-.86-.7-1.56-1.56-1.56h-38.77c-.87,0-1.57.7-1.57,1.56v20.87c3.2,1.1,4.95,4.57,3.9,7.81ZM65.62,29.28h20.57c1.1,0,2,.89,2,2s-.89,1.98-2,1.98h-20.57c-1.09,0-1.98-.89-1.98-1.98s.89-2,1.98-2ZM65.62,39.24h20.57c1.1,0,2,.89,2,2s-.89,1.99-2,1.99h-20.57c-1.09,0-1.98-.89-1.98-1.99s.89-2,1.98-2ZM65.62,49.2h20.57c1.1,0,2,.89,2,2s-.89,1.99-2,1.99h-20.57c-1.09,0-1.98-.89-1.98-1.99s.89-2,1.98-2Z"/>
    </g>
    <g>
      <path class="cls-2" d="M65.5,77.95c-.63-.66-1.41-1.15-2.28-1.45-1.29.89-2.88,1.42-4.56,1.42s-3.28-.53-4.59-1.42c-2.33.82-3.99,3-3.99,5.62v3.68c0,.65.52,1.16,1.16,1.16h13.35c-.1-.37-.16-.76-.16-1.15v-3.7c0-1.49.37-2.91,1.07-4.17Z"/>
      <path class="cls-2" d="M58.65,75.01c2.86,0,5.17-2.32,5.17-5.18s-2.32-5.17-5.17-5.17-5.18,2.32-5.18,5.17,2.32,5.18,5.18,5.18Z"/>
      <path class="cls-2" d="M97.73,76.5c-1.29.89-2.88,1.42-4.56,1.42s-3.28-.53-4.57-1.42c-.87.31-1.65.81-2.26,1.45.68,1.26,1.05,2.68,1.05,4.17v3.7c0,.39-.06.78-.16,1.15h13.36c.63,0,1.15-.52,1.15-1.16v-3.68c0-2.62-1.68-4.8-4.01-5.62Z"/>
      <path class="cls-2" d="M93.17,75.01c2.86,0,5.18-2.32,5.18-5.18s-2.32-5.17-5.18-5.17-5.18,2.32-5.18,5.17,2.32,5.18,5.18,5.18Z"/>
      <path class="cls-2" d="M80.48,76.51c-1.3.9-2.88,1.42-4.57,1.42s-3.27-.53-4.57-1.42c-2.32.82-4,3.01-4,5.61v3.7c0,.64.52,1.16,1.16,1.16h14.83c.64,0,1.16-.52,1.16-1.16v-3.7c0-2.6-1.68-4.79-4-5.61Z"/>
      <path class="cls-2" d="M75.91,75.02c2.86,0,5.17-2.32,5.17-5.17s-2.32-5.18-5.17-5.18-5.17,2.32-5.17,5.18,2.32,5.17,5.17,5.17Z"/>
    </g>
  </g>
</svg>