<svg width="2987" height="1204" xmlns="http://www.w3.org/2000/svg" xmlns:xlink="http://www.w3.org/1999/xlink" xml:space="preserve" overflow="hidden"><g transform="translate(466 -188)"><path d="M424 790C424 457.525 693.524 188 1026 188 1358.48 188 1628 457.525 1628 790 1628 1122.48 1358.48 1392 1026 1392 693.524 1392 424 1122.48 424 790Z" fill="#FFFFFF" fill-rule="evenodd"/><path d="M1185 665.5C1185 560.842 1269.84 476 1374.5 476 1479.16 476 1564 560.842 1564 665.5 1564 770.158 1479.16 855 1374.5 855 1269.84 855 1185 770.158 1185 665.5Z" fill="#EBD306" fill-rule="evenodd"/><path d="M486 697.5C486 592.842 570.842 508 675.5 508 780.158 508 865 592.842 865 697.5 865 802.158 780.158 887 675.5 887 570.842 887 486 802.158 486 697.5Z" fill="#EBD306" fill-rule="evenodd"/><path d="M836 1063C836 958.066 920.842 873 1025.5 873 1130.16 873 1215 958.066 1215 1063 1215 1167.93 1130.16 1253 1025.5 1253 920.842 1253 836 1167.93 836 1063Z" fill="#EBD306" fill-rule="evenodd"/><path d="M836 592.5C836 487.842 920.842 403 1025.5 403 1130.16 403 1215 487.842 1215 592.5 1215 697.158 1130.16 782 1025.5 782 920.842 782 836 697.158 836 592.5Z" fill="#EBD306" fill-rule="evenodd"/><path d="M648 649.5C648 560.858 719.858 489 808.5 489 897.142 489 969 560.858 969 649.5 969 738.142 897.142 810 808.5 810 719.858 810 648 738.142 648 649.5Z" fill="#EBD306" fill-rule="evenodd"/><path d="M1113 590.5C1113 534.443 1158.44 489 1214.5 489 1270.56 489 1316 534.443 1316 590.5 1316 646.557 1270.56 692 1214.5 692 1158.44 692 1113 646.557 1113 590.5Z" fill="#EBD306" fill-rule="evenodd"/><path d="M1003 863.5C1003 768.783 1079.78 692 1174.5 692 1269.22 692 1346 768.783 1346 863.5 1346 958.217 1269.22 1035 1174.5 1035 1079.78 1035 1003 958.217 1003 863.5Z" fill="#EBD306" fill-rule="evenodd"/><path d="M776 800.5C776 705.783 852.783 629 947.5 629 1042.22 629 1119 705.783 1119 800.5 1119 895.217 1042.22 972 947.5 972 852.783 972 776 895.217 776 800.5Z" fill="#EBD306" fill-rule="evenodd"/><text font-family="Aptos,Aptos_MSFontService,sans-serif" font-weight="700" font-size="165" transform="matrix(1 0 0 1 595.59 787)">Exploration</text></g></svg>