<svg width="2987" height="1204" xmlns="http://www.w3.org/2000/svg" xmlns:xlink="http://www.w3.org/1999/xlink" xml:space="preserve" overflow="hidden"><defs><clipPath id="clip0"><rect x="1980" y="208" width="2987" height="1204"/></clipPath></defs><g clip-path="url(#clip0)" transform="translate(-1980 -208)"><path d="M2872 810C2872 477.525 3141.52 208 3474 208 3806.48 208 4076 477.525 4076 810 4076 1142.48 3806.48 1412 3474 1412 3141.52 1412 2872 1142.48 2872 810Z" fill="#FFFFFF" fill-rule="evenodd"/><path d="M3018 809.5C3018 557.934 3221.93 354 3473.5 354 3725.07 354 3929 557.934 3929 809.5 3929 1061.07 3725.07 1265 3473.5 1265 3221.93 1265 3018 1061.07 3018 809.5ZM3065.92 809.5C3065.92 1034.6 3248.4 1217.08 3473.5 1217.08 3698.6 1217.08 3881.08 1034.6 3881.08 809.5 3881.08 584.399 3698.6 401.918 3473.5 401.918 3248.4 401.918 3065.92 584.399 3065.92 809.5Z" fill="#EBD306" fill-rule="evenodd"/><path d="M3311 748 3474 467 3637 748Z" fill="#EBD306" fill-rule="evenodd"/><rect x="3192" y="776" width="282" height="281" fill="#EBD306"/><path d="M3497 916.5C3497 838.904 3559.9 776 3637.5 776 3715.1 776 3778 838.904 3778 916.5 3778 994.096 3715.1 1057 3637.5 1057 3559.9 1057 3497 994.096 3497 916.5Z" fill="#EBD306" fill-rule="evenodd"/><text font-family="Aptos,Aptos_MSFontService,sans-serif" font-weight="700" font-size="165" transform="matrix(1 0 0 1 3154.68 835)">Focused</text></g></svg>