<?xml version="1.0" encoding="UTF-8"?>
<svg id="Layer_1" xmlns="http://www.w3.org/2000/svg" width="128" height="128" viewBox="0 0 128 128">
  <defs>
    <style>
      .cls-1 {
        fill: #c5b4e3;
      }

      .cls-2 {
        fill: #4b2e83;
      }
    </style>
  </defs>
  <circle class="cls-1" cx="64" cy="64" r="64"/>
  <g>
    <g>
      <path class="cls-2" d="M48.38,101.1c.03.69.46,1.13,1.07,1.13.44,0,.71-.19,1.04-.7l.49.27c-.37.66-.87.95-1.55.95-.97,0-1.64-.73-1.64-1.78s.68-1.75,1.63-1.75,1.59.7,1.59,1.75v.11h-2.62ZM50.4,100.61c-.11-.53-.49-.87-.99-.87s-.91.36-.99.87h1.97Z"/>
      <path class="cls-2" d="M54.22,98.32c-.27-.44-.51-.58-.93-.58-.5,0-.89.36-.89.83,0,.23.11.43.34.58.13.08.27.16.42.23l.17.08.17.07.17.07c.87.38,1.22.81,1.22,1.48,0,.93-.74,1.67-1.7,1.67-.87,0-1.46-.5-1.67-1.39l.58-.16c.15.65.52.99,1.08.99.62,0,1.1-.46,1.1-1.06,0-.33-.15-.58-.44-.77-.14-.09-.29-.17-.47-.24l-.16-.08-.16-.07-.16-.07c-.78-.35-1.09-.73-1.09-1.33,0-.78.66-1.38,1.51-1.38.61,0,1.07.28,1.39.84l-.48.31Z"/>
      <path class="cls-2" d="M58.36,100.3c-.37-.4-.65-.55-1.06-.55-.67,0-1.18.53-1.18,1.24s.51,1.24,1.16,1.24c.45,0,.72-.15,1.11-.58v.76c-.41.26-.69.35-1.08.35-1,0-1.78-.77-1.78-1.75s.78-1.77,1.8-1.77c.39,0,.69.09,1.04.32v.76Z"/>
      <path class="cls-2" d="M59.86,98.03c0,.23-.19.41-.41.41s-.41-.19-.41-.41.19-.41.41-.41.41.19.41.41ZM59.73,102.66h-.57v-3.36h.57v3.36Z"/>
      <path class="cls-2" d="M61.06,101.1c.03.69.46,1.13,1.07,1.13.44,0,.71-.19,1.04-.7l.49.27c-.37.66-.87.95-1.55.95-.97,0-1.64-.73-1.64-1.78s.68-1.75,1.63-1.75,1.59.7,1.59,1.75v.11h-2.62ZM63.07,100.61c-.11-.53-.49-.87-.99-.87s-.91.36-.99.87h1.97Z"/>
      <path class="cls-2" d="M64.99,99.3v.4c.29-.36.55-.49.97-.49s.78.18.96.46c.13.21.19.46.19.9v2.08h-.57v-1.98c0-.69-.19-.94-.71-.94-.58,0-.83.37-.83,1.25v1.67h-.57v-3.36h.57Z"/>
      <path class="cls-2" d="M70.65,100.3c-.37-.4-.65-.55-1.06-.55-.67,0-1.18.53-1.18,1.24s.51,1.24,1.16,1.24c.45,0,.72-.15,1.11-.58v.76c-.41.26-.69.35-1.08.35-1,0-1.78-.77-1.78-1.75s.78-1.77,1.8-1.77c.39,0,.69.09,1.04.32v.76Z"/>
      <path class="cls-2" d="M71.82,101.1c.03.69.46,1.13,1.07,1.13.44,0,.71-.19,1.04-.7l.49.27c-.37.66-.87.95-1.55.95-.97,0-1.64-.73-1.64-1.78s.68-1.75,1.63-1.75,1.59.7,1.59,1.75v.11h-2.62ZM73.83,100.61c-.1-.53-.49-.87-.99-.87s-.91.36-.99.87h1.97Z"/>
      <path class="cls-2" d="M77.98,102.66h-.61v-5.39h.61v5.39Z"/>
      <path class="cls-2" d="M79.65,99.3v.4c.29-.36.55-.49.97-.49s.78.18.96.46c.13.21.19.46.19.9v2.08h-.57v-1.98c0-.69-.19-.94-.71-.94-.58,0-.83.37-.83,1.25v1.67h-.57v-3.36h.57Z"/>
      <path class="cls-2" d="M84.04,100.09c-.12-.23-.27-.33-.46-.33-.23,0-.41.16-.41.36s.11.31.54.49c.81.34,1.01.55,1.01,1.06,0,.61-.5,1.09-1.14,1.09-.57,0-.96-.28-1.18-.86l.51-.21c.19.41.36.54.68.54s.54-.23.54-.53c0-.26-.12-.38-.54-.56-.78-.34-.97-.53-.97-.98,0-.54.42-.94,1-.94.39,0,.7.2.9.61l-.48.25Z"/>
      <path class="cls-2" d="M85.97,102.66h-.57v-2.82h-.35v-.53h.35v-1.21h.57v1.21h.6v.53h-.6v2.82Z"/>
      <path class="cls-2" d="M87.73,98.03c0,.23-.19.41-.41.41s-.41-.19-.41-.41.19-.41.41-.41.41.19.41.41ZM87.6,102.66h-.57v-3.36h.57v3.36Z"/>
      <path class="cls-2" d="M89.15,102.66h-.57v-2.82h-.35v-.53h.35v-1.21h.57v1.21h.6v.53h-.6v2.82Z"/>
      <path class="cls-2" d="M90.79,101.26c0,.68.23.97.76.97s.75-.29.75-.97v-1.96h.57v2.02c0,.49-.08.76-.31,1.01-.24.27-.61.42-1.02.42s-.78-.15-1.03-.42c-.23-.25-.31-.52-.31-1.01v-2.02h.57v1.96Z"/>
      <path class="cls-2" d="M94.41,102.66h-.57v-2.82h-.35v-.53h.35v-1.21h.57v1.21h.6v.53h-.6v2.82Z"/>
      <path class="cls-2" d="M95.82,101.1c.03.69.46,1.13,1.07,1.13.44,0,.71-.19,1.04-.7l.49.27c-.37.66-.87.95-1.55.95-.97,0-1.64-.73-1.64-1.78s.68-1.75,1.63-1.75,1.59.7,1.59,1.75v.11h-2.62ZM97.83,100.61c-.11-.53-.49-.87-.99-.87s-.91.36-.99.87h1.97Z"/>
    </g>
    <path class="cls-2" d="M40.88,101.26c-.03-.06-.05-.13-.09-.19l4.32-3.1c.2.22.49.35.81.35.61,0,1.1-.49,1.1-1.1s-.49-1.1-1.1-1.1-1.1.49-1.1,1.1c0,.19.05.37.13.52h0s-4.32,3.1-4.32,3.1c-.06-.07-.13-.13-.2-.19l1.32-2.17s0,0,0,0c.16.08.35.12.54.12.02,0,.04,0,.06,0,.71-.03,1.26-.63,1.22-1.34-.02-.39-.21-.73-.49-.96,0,0,0,0,0,0l1.45-2.39c.09.04.18.05.28.05h.03c.41-.02.73-.37.71-.78-.02-.4-.35-.71-.75-.71h-.03c-.41.02-.73.37-.71.78,0,.2.1.38.24.51l-1.46,2.39h0c-.18-.09-.39-.13-.61-.12-.71.03-1.26.63-1.22,1.34.02.4.21.74.51.97,0,0,0,0,0,0l-1.32,2.17c-.08-.04-.17-.07-.26-.09l.62-4.3s-.03,0-.05,0c-.04,0-.08,0-.12-.01.04,0,.08.01.12.01.41,0,.75-.34.75-.75s-.34-.75-.75-.75-.75.34-.75.75c0,.33.22.61.52.71l-.62,4.29s-.04,0-.06,0c-.1,0-.2.01-.29.03l-.23-.72h0c.24-.13.4-.37.4-.66,0-.41-.34-.75-.75-.75s-.75.34-.75.75.34.75.75.75c.03,0,.06,0,.09,0l.23.73c-.26.11-.47.3-.61.54l-3.64-1.79c.04-.11.06-.24.06-.36,0-.61-.49-1.1-1.1-1.1s-1.1.49-1.1,1.1.49,1.1,1.1,1.1c.38,0,.72-.19.91-.49h0s3.64,1.79,3.64,1.79c-.04.11-.07.22-.08.34h-1.44s.02.09.02.14c0-.41-.34-.75-.75-.75s-.75.34-.75.75.34.75.75.75c.37,0,.68-.27.74-.62h1.43c.03.3.15.56.33.77l-1.18,1.26h0c-.09-.07-.2-.13-.31-.17-.11-.04-.23-.06-.35-.06-.47,0-.89.3-1.04.75-.09.28-.07.58.06.84.13.26.36.46.64.55.11.04.23.06.35.06.47,0,.89-.3,1.04-.75.09-.28.07-.58-.06-.84-.06-.12-.14-.22-.23-.3.04.03.07.07.11.11l1.18-1.26c.2.15.43.25.69.28v2.05c-.27.05-.49.24-.58.5-.06.19-.05.39.04.57.09.18.24.31.43.37.08.03.16.04.24.04.32,0,.61-.21.71-.51.13-.39-.08-.82-.48-.95-.03,0-.06-.02-.09-.02v-2.05c.09,0,.18-.03.27-.05l1.37,3.22c-.23.13-.4.34-.49.6-.09.28-.07.58.06.84.13.26.36.46.64.55.11.04.23.06.35.06.47,0,.89-.3,1.04-.75.19-.58-.12-1.2-.7-1.39-.11-.04-.23-.06-.35-.06-.1,0-.2.02-.3.04l-1.37-3.21c.12-.07.23-.15.33-.25l.63.5s0,0,0,0c-.04.06-.07.13-.09.2-.19.58.12,1.2.7,1.39.11.04.23.06.35.06.47,0,.89-.3,1.04-.75.19-.58-.12-1.2-.7-1.39-.11-.04-.23-.06-.35-.06-.31,0-.59.13-.79.34,0,0,0,0,0,0l-.63-.49c.07-.12.13-.24.17-.38l3.98.64s0,0,0,0c0,.31.2.59.51.69.08.03.16.04.24.04.32,0,.61-.21.71-.51.13-.39-.08-.82-.48-.95-.08-.03-.16-.04-.24-.04-.32,0-.6.2-.7.5l-3.98-.64s0-.06,0-.09c0-.08,0-.16-.02-.23l2.18-.61s0,0,0,0c.16.4.56.69,1.02.69.61,0,1.1-.49,1.1-1.1s-.49-1.1-1.1-1.1-1.1.49-1.1,1.1c0,.05,0,.1.01.14,0,0,0,0,0,0l-2.18.61ZM45.92,96.5c.4,0,.73.33.73.73s-.33.73-.73.73-.73-.33-.73-.73.33-.73.73-.73ZM45.04,97.88s0,0,0-.01c0,0,0,0,0,.01ZM44.82,92.85c.2,0,.37.16.38.36,0,.21-.15.39-.36.4h-.02c-.2,0-.37-.16-.38-.36,0-.21.15-.39.38-.4ZM41.38,97.37c-.02-.5.37-.93.87-.96.01,0,.03,0,.04,0,.49,0,.89.38.91.88.02.5-.37.93-.87.96-.51.02-.93-.37-.96-.87ZM41.64,98.43s0,0,0,0c0,0,0,0,0,0ZM40.12,95.39c0-.21.17-.38.38-.38s.38.17.38.38-.17.38-.38.38-.38-.17-.38-.38ZM38.35,99.04c0-.21.17-.38.38-.38s.38.17.38.38-.17.38-.38.38-.38-.17-.38-.38ZM38.95,99.75s0,0,0,0c0,0,0,0,0,0ZM33.76,99.62c-.4,0-.73-.33-.73-.73s.33-.73.73-.73.73.33.73.73-.33.73-.73.73ZM34.74,99.37s0,0,0,.01c0,0,0,0,0-.01ZM36.07,102.15c-.21,0-.38-.17-.38-.38s.17-.38.38-.38.38.17.38.38-.17.38-.38.38ZM37.42,105.03c-.1.3-.38.5-.7.5-.08,0-.16-.01-.23-.04-.38-.13-.59-.54-.47-.93.1-.3.38-.5.7-.5.08,0,.16.01.23.04.19.06.34.19.42.37.09.17.1.37.04.56ZM42.16,106.54c.38.13.59.54.47.93-.1.3-.38.5-.7.5-.08,0-.16-.01-.23-.04-.19-.06-.34-.19-.42-.37-.09-.18-.1-.37-.04-.56.1-.3.38-.5.7-.5.08,0,.16.01.23.04ZM41.49,106.23s0,0,.01,0c0,0,0,0-.01,0ZM41.48,103.53c.1-.3.38-.5.7-.5.08,0,.16.01.23.04.38.13.59.54.47.93-.1.3-.38.5-.7.5-.08,0-.16-.01-.23-.04-.38-.13-.59-.54-.47-.93ZM45.29,102.62c.05-.16.2-.26.36-.26.04,0,.08,0,.12.02.2.07.31.28.24.48-.06.2-.28.31-.48.24-.2-.07-.31-.28-.24-.48ZM44.92,102.63s.01-.09.03-.13c-.01.04-.02.09-.03.13ZM39.95,106.03c-.06.2-.28.31-.48.24-.1-.03-.18-.1-.22-.19-.05-.09-.05-.19-.02-.29.05-.16.2-.26.36-.26.04,0,.08,0,.12.02.2.07.31.28.24.48ZM44.16,99.78c.4,0,.73.33.73.73s-.33.73-.73.73-.73-.33-.73-.73.33-.73.73-.73ZM43.1,100.8s0,0,0-.01c0,0,0,0,0,.01Z"/>
  </g>
  <g>
    <g>
      <g>
        <path class="cls-2" d="M96.92,29.76v37.05c0,1.03-.84,1.82-1.87,1.82-2.03,0-4.05.08-6.06.26-.42-1.18-1.4-2.08-2.69-2.42l-10.51-2.76c4.32-1,8.69-1.55,13.04-1.69V26.81c-7.66.21-15.14,1.82-22.38,4.71v29.76c-.61-.16-1.21-.21-1.84-.21s-1.24.05-1.84.21v-29.76c-7.19-2.9-14.72-4.5-22.38-4.71v35.21c4.4.13,8.77.69,13.04,1.69l-10.51,2.76c-1.29.34-2.27,1.24-2.69,2.42-2-.18-4.03-.26-6.06-.26-1.03,0-1.87-.79-1.87-1.82V29.76c0-1,.84-1.84,1.87-1.84.82,0,1.63.03,2.42.08h.13v-3.03c0-1.05.79-1.87,1.84-1.87,8.98,0,17.75,1.74,26.04,5.16,8.32-3.42,17.09-5.16,26.1-5.16,1,0,1.79.82,1.79,1.87v3.03h.13c.79-.05,1.61-.08,2.42-.08,1.03,0,1.87.84,1.87,1.84Z"/>
        <path class="cls-2" d="M57.03,38.35c.13.05.35.09.49.09.84,0,1.54-.53,1.81-1.32.26-.97-.31-1.98-1.28-2.29-4.01-1.19-8.11-2.03-12.25-2.47-1.01-.09-1.89.66-2.03,1.63-.04.48.09.97.4,1.36.31.35.75.62,1.23.66,3.92.44,7.84,1.23,11.63,2.33Z"/>
        <path class="cls-2" d="M44.16,42.36c.31.4.75.62,1.23.66,3.92.44,7.84,1.23,11.63,2.38.18.04.35.04.49.04.84,0,1.54-.53,1.81-1.32.26-.97-.31-1.98-1.28-2.25-3.97-1.23-8.11-2.07-12.25-2.51-1.06-.09-1.89.62-2.03,1.63-.04.48.09.97.4,1.37Z"/>
        <path class="cls-2" d="M44.16,49.37c.31.4.75.66,1.23.71,3.92.4,7.84,1.19,11.63,2.33.13.04.35.09.49.09.84,0,1.54-.53,1.81-1.32.26-.97-.31-2.03-1.28-2.29-3.97-1.19-8.11-2.03-12.25-2.47-1.01-.09-1.89.62-2.03,1.63-.04.49.09.97.4,1.32Z"/>
        <path class="cls-2" d="M44.16,56.42c.31.35.75.62,1.23.66,3.92.44,7.84,1.19,11.63,2.33.18.05.35.09.49.09.84,0,1.54-.53,1.81-1.32.26-.97-.31-1.98-1.28-2.29-3.97-1.19-8.11-2.03-12.25-2.47-1.06-.09-1.89.62-2.03,1.63-.04.48.09.97.4,1.37Z"/>
        <path class="cls-2" d="M71.7,38.44c.18,0,.35-.04.49-.09,3.79-1.1,7.71-1.9,11.63-2.33.49-.05.93-.31,1.23-.66.31-.4.44-.88.4-1.36-.09-.93-.93-1.63-1.89-1.63h-.13c-4.14.44-8.24,1.28-12.25,2.47-.49.13-.88.49-1.1.88-.22.44-.31.97-.13,1.41.22.79.93,1.32,1.76,1.32Z"/>
        <path class="cls-2" d="M69.94,44.12c.22.79.93,1.32,1.76,1.32.18,0,.35,0,.49-.04,3.83-1.15,7.71-1.94,11.63-2.38.49-.05.93-.26,1.23-.66.31-.4.44-.88.4-1.37-.13-.97-1.01-1.72-2.03-1.63-4.14.44-8.28,1.28-12.25,2.51-.49.13-.88.44-1.1.88-.22.44-.31.93-.13,1.37Z"/>
        <path class="cls-2" d="M69.94,51.18c.22.75.93,1.32,1.76,1.32.18,0,.35-.05.49-.09,3.79-1.14,7.71-1.94,11.63-2.33.49-.05.93-.31,1.23-.71.31-.35.44-.84.4-1.32-.13-1.01-1.06-1.72-2.03-1.63-4.14.44-8.28,1.28-12.25,2.47-.49.13-.88.44-1.1.88-.22.44-.31.93-.13,1.41Z"/>
        <path class="cls-2" d="M69.94,58.18c.22.79.93,1.32,1.76,1.32.18,0,.35-.04.49-.09,3.83-1.14,7.71-1.89,11.63-2.33.49-.05.93-.31,1.23-.66.31-.4.44-.88.4-1.37-.13-1.01-1.01-1.72-2.03-1.63-4.14.44-8.28,1.28-12.25,2.47-.49.13-.88.48-1.1.88-.22.44-.31.97-.13,1.41Z"/>
      </g>
      <path class="cls-2" d="M64.61,87.96c4.88,0,9.07-.67,12.36-1.46,1.23-.29,2.07-1.39,2.07-2.65v-7.97s-12.27,3.24-12.27,3.24c-.7.19-1.43.28-2.16.28s-1.46-.09-2.16-.28l-12.27-3.24v7.97c0,1.26.85,2.36,2.07,2.65,3.29.79,7.48,1.46,12.36,1.46"/>
    </g>
    <path class="cls-2" d="M85.57,69.28l-19.36-5.11c-1.04-.28-2.14-.28-3.19,0l-19.36,5.11c-1.06.28-1.06,1.78,0,2.06l1.9.5v6.07c-.75.3-1.28,1.04-1.28,1.9,0,1.13.92,2.04,2.05,2.04s2.05-.92,2.05-2.04c0-.86-.53-1.59-1.28-1.89v-5.66l15.93,4.21c1.04.28,2.14.28,3.19,0l19.36-5.11c1.06-.28,1.06-1.78,0-2.06Z"/>
  </g>
</svg>